<svg xmlns="http://www.w3.org/2000/svg" width="800" height="480" viewBox="0 0 800 480">
<rect width="100%" height="100%" fill="#ffffff"/>
<text x="400" y="18" font-size="16" text-anchor="middle" fill="#222">Bloom Filter False Positive Rate</text>
<line x1="70.0" y1="420.0" x2="70.0" y2="20.0" stroke="#eee" />
<line x1="212.0" y1="420.0" x2="212.0" y2="20.0" stroke="#eee" />
<line x1="354.0" y1="420.0" x2="354.0" y2="20.0" stroke="#eee" />
<line x1="496.0" y1="420.0" x2="496.0" y2="20.0" stroke="#eee" />
<line x1="638.0" y1="420.0" x2="638.0" y2="20.0" stroke="#eee" />
<line x1="780.0" y1="420.0" x2="780.0" y2="20.0" stroke="#eee" />
<line x1="70.0" y1="420.0" x2="780.0" y2="420.0" stroke="#eee" />
<line x1="70.0" y1="340.0" x2="780.0" y2="340.0" stroke="#eee" />
<line x1="70.0" y1="260.0" x2="780.0" y2="260.0" stroke="#eee" />
<line x1="70.0" y1="180.0" x2="780.0" y2="180.0" stroke="#eee" />
<line x1="70.0" y1="100.0" x2="780.0" y2="100.0" stroke="#eee" />
<line x1="70.0" y1="20.0" x2="780.0" y2="20.0" stroke="#eee" />
<polyline fill="none" stroke="#1f77b4" stroke-width="3" points="70.0,172.1 107.4,177.6 144.7,106.0 182.1,56.4 219.5,166.6 256.8,183.1 294.2,139.0 331.6,155.5 368.9,111.5 406.3,177.6 443.7,172.1 481.1,94.9 518.4,221.7 555.8,139.0 593.2,78.4 630.5,128.0 667.9,144.5 705.3,150.0 742.6,117.0 780.0,150.0" />
<polyline fill="none" stroke="#ff7f0e" stroke-width="3" points="70.0,143.6 107.4,143.5 144.7,143.5 182.1,143.5 219.5,143.4 256.8,143.4 294.2,143.4 331.6,143.4 368.9,143.4 406.3,143.4 443.7,143.4 481.1,143.4 518.4,143.4 555.8,143.4 593.2,143.4 630.5,143.4 667.9,143.4 705.3,143.4 742.6,143.4 780.0,143.4" />
<text x="70.0" y="460" font-size="12" text-anchor="middle" fill="#444">1000</text>
<text x="212.0" y="460" font-size="12" text-anchor="middle" fill="#444">4800</text>
<text x="354.0" y="460" font-size="12" text-anchor="middle" fill="#444">8600</text>
<text x="496.0" y="460" font-size="12" text-anchor="middle" fill="#444">12400</text>
<text x="638.0" y="460" font-size="12" text-anchor="middle" fill="#444">16200</text>
<text x="780.0" y="460" font-size="12" text-anchor="middle" fill="#444">20000</text>
<text x="62" y="424.0" font-size="12" text-anchor="end" fill="#444">0.000</text>
<text x="62" y="344.0" font-size="12" text-anchor="end" fill="#444">0.003</text>
<text x="62" y="264.0" font-size="12" text-anchor="end" fill="#444">0.006</text>
<text x="62" y="184.0" font-size="12" text-anchor="end" fill="#444">0.009</text>
<text x="62" y="104.0" font-size="12" text-anchor="end" fill="#444">0.012</text>
<text x="62" y="24.0" font-size="12" text-anchor="end" fill="#444">0.015</text>
<text x="425.0" y="475" font-size="13" text-anchor="middle" fill="#222">n (inserted items)</text>
<text x="18" y="220.0" font-size="13" text-anchor="middle" fill="#222" transform="rotate(-90, 18, 220.0)">false positive probability</text>
<rect x="560" y="26" width="220" height="44" fill="#fff" stroke="#ddd" /><line x1="580" y1="42" x2="610" y2="42" stroke="#1f77b4" stroke-width="3" /><text x="620" y="46" font-size="12" fill="#333">Empirical</text><line x1="580" y1="62" x2="610" y2="62" stroke="#ff7f0e" stroke-width="3" /><text x="620" y="66" font-size="12" fill="#333">Theoretical</text>
</svg>